<svg width="49" height="48" viewBox="0 0 49 48" fill="none" xmlns="http://www.w3.org/2000/svg">
<path d="M22.5 18V12H16.5V8H22.5V2H26.5V8H32.5V12H26.5V18H22.5ZM14.5 44C13.4 44 12.4587 43.6087 11.676 42.826C10.8933 42.0433 10.5013 41.1013 10.5 40C10.4987 38.8987 10.8907 37.9573 11.676 37.176C12.4613 36.3947 13.4027 36.0027 14.5 36C15.5973 35.9973 16.5393 36.3893 17.326 37.176C18.1127 37.9627 18.504 38.904 18.5 40C18.496 41.096 18.1047 42.038 17.326 42.826C16.5473 43.614 15.6053 44.0053 14.5 44ZM34.5 44C33.4 44 32.4587 43.6087 31.676 42.826C30.8933 42.0433 30.5013 41.1013 30.5 40C30.4987 38.8987 30.8907 37.9573 31.676 37.176C32.4613 36.3947 33.4027 36.0027 34.5 36C35.5973 35.9973 36.5393 36.3893 37.326 37.176C38.1127 37.9627 38.504 38.904 38.5 40C38.496 41.096 38.1047 42.038 37.326 42.826C36.5473 43.614 35.6053 44.0053 34.5 44ZM2.5 8V4H9.05L17.55 22H31.55L39.35 8H43.9L35.1 23.9C34.7333 24.5667 34.242 25.0833 33.626 25.45C33.01 25.8167 32.3347 26 31.6 26H16.7L14.5 30H38.5V34H14.5C13 34 11.858 33.35 11.074 32.05C10.29 30.75 10.2653 29.4333 11 28.1L13.7 23.2L6.5 8H2.5Z" fill="black"/>
</svg>
