<svg width="32" height="32" viewBox="0 0 32 32" fill="none" xmlns="http://www.w3.org/2000/svg">
<path d="M14.6667 12V8.00004H10.6667V5.33337H14.6667V1.33337H17.3334V5.33337H21.3334V8.00004H17.3334V12H14.6667ZM9.33337 29.3334C8.60004 29.3334 7.97248 29.0725 7.45071 28.5507C6.92893 28.0289 6.6676 27.4009 6.66671 26.6667C6.66582 25.9325 6.92715 25.3049 7.45071 24.784C7.97426 24.2632 8.60182 24.0018 9.33337 24C10.0649 23.9983 10.6929 24.2596 11.2174 24.784C11.7418 25.3085 12.0027 25.936 12 26.6667C11.9974 27.3974 11.7365 28.0254 11.2174 28.5507C10.6983 29.076 10.0703 29.3369 9.33337 29.3334ZM22.6667 29.3334C21.9334 29.3334 21.3058 29.0725 20.784 28.5507C20.2623 28.0289 20.0009 27.4009 20 26.6667C19.9992 25.9325 20.2605 25.3049 20.784 24.784C21.3076 24.2632 21.9352 24.0018 22.6667 24C23.3983 23.9983 24.0263 24.2596 24.5507 24.784C25.0752 25.3085 25.336 25.936 25.3334 26.6667C25.3307 27.3974 25.0698 28.0254 24.5507 28.5507C24.0316 29.076 23.4036 29.3369 22.6667 29.3334ZM1.33337 5.33337V2.66671H5.70004L11.3667 14.6667H20.7L25.9 5.33337H28.9334L23.0667 15.9334C22.8223 16.3778 22.4947 16.7223 22.084 16.9667C21.6734 17.2112 21.2232 17.3334 20.7334 17.3334H10.8L9.33337 20H25.3334V22.6667H9.33337C8.33337 22.6667 7.57204 22.2334 7.04937 21.3667C6.52671 20.5 6.51026 19.6223 7.00004 18.7334L8.80004 15.4667L4.00004 5.33337H1.33337Z" fill="black"/>
</svg>
