<svg width="49" height="48" viewBox="0 0 49 48" fill="none" xmlns="http://www.w3.org/2000/svg">
<path d="M34.25 36C32.03 36 30.25 37.78 30.25 40C30.25 41.0609 30.6714 42.0783 31.4216 42.8284C32.1717 43.5786 33.1891 44 34.25 44C35.3109 44 36.3283 43.5786 37.0784 42.8284C37.8286 42.0783 38.25 41.0609 38.25 40C38.25 38.9391 37.8286 37.9217 37.0784 37.1716C36.3283 36.4214 35.3109 36 34.25 36ZM2.25 4V8H6.25L13.45 23.18L10.73 28.08C10.43 28.64 10.25 29.3 10.25 30C10.25 31.0609 10.6714 32.0783 11.4216 32.8284C12.1717 33.5786 13.1891 34 14.25 34H38.25V30H15.09C14.9574 30 14.8302 29.9473 14.7364 29.8536C14.6427 29.7598 14.59 29.6326 14.59 29.5C14.59 29.4 14.61 29.32 14.65 29.26L16.45 26H31.35C32.85 26 34.17 25.16 34.85 23.94L42.01 11C42.15 10.68 42.25 10.34 42.25 10C42.25 9.46957 42.0393 8.96086 41.6642 8.58579C41.2891 8.21071 40.7804 8 40.25 8H10.67L8.79 4M14.25 36C12.03 36 10.25 37.78 10.25 40C10.25 41.0609 10.6714 42.0783 11.4216 42.8284C12.1717 43.5786 13.1891 44 14.25 44C15.3109 44 16.3283 43.5786 17.0784 42.8284C17.8286 42.0783 18.25 41.0609 18.25 40C18.25 38.9391 17.8286 37.9217 17.0784 37.1716C16.3283 36.4214 15.3109 36 14.25 36Z" fill="black"/>
</svg>
