<svg width="48" height="48" viewBox="0 0 48 48" fill="none" xmlns="http://www.w3.org/2000/svg">
<path d="M6 24.0001H24V27.0001H6V24.0001ZM3 16.5001H18V19.5001H3V16.5001Z" fill="black"/>
<path d="M44.8785 24.9091L40.3785 14.4091C40.2629 14.1394 40.0706 13.9094 39.8256 13.7479C39.5806 13.5863 39.2935 13.5002 39 13.5001H34.5V10.5001C34.5 10.1023 34.342 9.72077 34.0607 9.43946C33.7794 9.15816 33.3978 9.00012 33 9.00012H9.00001V12.0001H31.5V30.8341C30.8169 31.2315 30.2191 31.76 29.7408 32.3891C29.2625 33.0182 28.9132 33.7356 28.713 34.5001H19.287C18.9219 33.0861 18.0537 31.8538 16.845 31.0342C15.6363 30.2146 14.1702 29.8639 12.7215 30.0479C11.2728 30.232 9.94091 30.938 8.97553 32.0338C8.01015 33.1295 7.47754 34.5398 7.47754 36.0001C7.47754 37.4605 8.01015 38.8707 8.97553 39.9665C9.94091 41.0622 11.2728 41.7683 12.7215 41.9523C14.1702 42.1363 15.6363 41.7856 16.845 40.966C18.0537 40.1464 18.9219 38.9141 19.287 37.5001H28.713C29.0393 38.7875 29.7856 39.9293 30.8337 40.7449C31.8818 41.5605 33.1719 42.0033 34.5 42.0033C35.8281 42.0033 37.1182 41.5605 38.1663 40.7449C39.2145 39.9293 39.9607 38.7875 40.287 37.5001H43.5C43.8978 37.5001 44.2794 37.3421 44.5607 37.0608C44.842 36.7795 45 36.3979 45 36.0001V25.5001C45 25.2969 44.9586 25.0959 44.8785 24.9091ZM13.5 39.0001C12.9067 39.0001 12.3267 38.8242 11.8333 38.4945C11.34 38.1649 10.9554 37.6964 10.7284 37.1482C10.5013 36.6 10.4419 35.9968 10.5577 35.4149C10.6734 34.8329 10.9591 34.2984 11.3787 33.8788C11.7983 33.4592 12.3328 33.1735 12.9147 33.0578C13.4967 32.942 14.0999 33.0014 14.6481 33.2285C15.1962 33.4555 15.6648 33.8401 15.9944 34.3334C16.3241 34.8268 16.5 35.4068 16.5 36.0001C16.5 36.7958 16.1839 37.5588 15.6213 38.1214C15.0587 38.6841 14.2957 39.0001 13.5 39.0001ZM34.5 16.5001H38.01L41.226 24.0001H34.5V16.5001ZM34.5 39.0001C33.9067 39.0001 33.3267 38.8242 32.8333 38.4945C32.34 38.1649 31.9554 37.6964 31.7284 37.1482C31.5013 36.6 31.4419 35.9968 31.5577 35.4149C31.6734 34.8329 31.9591 34.2984 32.3787 33.8788C32.7983 33.4592 33.3328 33.1735 33.9147 33.0578C34.4967 32.942 35.0999 33.0014 35.6481 33.2285C36.1962 33.4555 36.6648 33.8401 36.9944 34.3334C37.3241 34.8268 37.5 35.4068 37.5 36.0001C37.5 36.7958 37.1839 37.5588 36.6213 38.1214C36.0587 38.6841 35.2957 39.0001 34.5 39.0001ZM42 34.5001H40.287C39.9566 33.2153 39.2092 32.0764 38.1619 31.262C37.1146 30.4476 35.8267 30.0038 34.5 30.0001V27.0001H42V34.5001Z" fill="black"/>
</svg>
