<svg width="64" height="64" viewBox="0 0 64 64" fill="none" xmlns="http://www.w3.org/2000/svg">
<path d="M5.32875 11.125C6.36625 17.275 7.50625 23.6375 7.1225 30.0625C6.76 36.1625 3.59875 41.6625 3.175 46.875H43.1375C43.8 44.825 45.1625 43.0125 46.675 41.6125C47.2 41.125 47.7375 40.675 48.275 40.2875C43.9125 39.075 40.5625 37.2875 37.9625 35.125H30.5V32.875H35.625C34.5625 31.6875 33.6625 30.425 32.9125 29.125H26V26.875H31.75C31.175 25.6375 30.7 24.3875 30.2875 23.125H24V20.875H29.6C29.25 19.6125 28.9375 18.35 28.65 17.125H22V14.875H28.125C27.825 13.5625 27.5125 12.3075 27.1625 11.125H5.32875ZM16 26.875C19.925 26.875 23.125 30.075 23.125 34C23.125 37.925 19.925 41.125 16 41.125C12.0787 41.125 8.875 37.925 8.875 34C8.875 30.075 12.0787 26.875 16 26.875ZM16 29.125C13.3 29.125 11.125 31.3 11.125 34C11.125 36.7 13.3 38.875 16 38.875C18.7 38.875 20.875 36.7 20.875 34C20.875 31.3 18.7 29.125 16 29.125ZM51.95 41.125C51.325 41.1625 49.625 41.9375 48.2 43.2625C47.1125 44.2625 46.1375 45.55 45.55 46.875H56C57.4375 46.875 59.2 46.1625 60.825 45.3375C60.775 44.8125 60.7 44.375 60.55 44.0875C60.35 43.675 60.0625 43.375 59.4625 43.05C58.2625 42.4 55.85 41.8625 51.95 41.125ZM60.875 47.7375C60.625 47.85 60.45 47.9375 60.1625 48.05C58.875 48.5625 57.375 49.125 56 49.125H3.125V52.875H54C56.775 52.875 59.6625 51.7875 60.875 51.275V47.7375Z" fill="black"/>
</svg>
