<svg width="32" height="32" viewBox="0 0 32 32" fill="none" xmlns="http://www.w3.org/2000/svg">
<path d="M5.33341 26.6667C4.60008 26.6667 3.97253 26.4058 3.45075 25.884C2.92897 25.3623 2.66764 24.7343 2.66675 24V8.00004C2.66675 7.26671 2.92808 6.63915 3.45075 6.11737C3.97341 5.5956 4.60097 5.33426 5.33341 5.33337H26.6667C27.4001 5.33337 28.0281 5.59471 28.5507 6.11737C29.0734 6.64004 29.3343 7.2676 29.3334 8.00004V24C29.3334 24.7334 29.0725 25.3614 28.5507 25.884C28.029 26.4067 27.401 26.6676 26.6667 26.6667H5.33341ZM16.0001 17.3334L26.6667 10.6667V8.00004L16.0001 14.6667L5.33341 8.00004V10.6667L16.0001 17.3334Z" fill="#BCBCBC"/>
</svg>
