<svg width="64" height="64" viewBox="0 0 64 64" fill="none" xmlns="http://www.w3.org/2000/svg">
<path fill-rule="evenodd" clip-rule="evenodd" d="M41.1147 15.0481C40.747 14.4605 40.2051 14.0021 39.5647 13.7369C38.9242 13.4716 38.217 13.4126 37.5414 13.5681L32.7467 14.6694C32.2554 14.7824 31.7448 14.7824 31.2534 14.6694L26.4587 13.5681C25.7832 13.4126 25.0759 13.4716 24.4355 13.7369C23.795 14.0021 23.2532 14.4605 22.8854 15.0481L20.2721 19.2188C20.0054 19.6454 19.6454 20.0054 19.2187 20.2748L15.0481 22.8881C14.4614 23.2556 14.0038 23.7965 13.7385 24.4359C13.4733 25.0752 13.4138 25.7813 13.5681 26.4561L14.6694 31.2561C14.7819 31.7466 14.7819 32.2563 14.6694 32.7468L13.5681 37.5441C13.4132 38.2193 13.4724 38.9259 13.7377 39.5659C14.0029 40.2058 14.4609 40.7472 15.0481 41.1148L19.2187 43.7281C19.6454 43.9948 20.0054 44.3548 20.2747 44.7814L22.8881 48.9521C23.6401 50.1548 25.0747 50.7494 26.4587 50.4321L31.2534 49.3308C31.7448 49.2178 32.2554 49.2178 32.7467 49.3308L37.5441 50.4321C38.2192 50.587 38.9259 50.5277 39.5658 50.2625C40.2057 49.9972 40.7471 49.5392 41.1147 48.9521L43.7281 44.7814C43.9947 44.3548 44.3547 43.9948 44.7814 43.7281L48.9547 41.1148C49.5419 40.7466 49.9997 40.2046 50.2645 39.5642C50.5292 38.9238 50.5878 38.2167 50.4321 37.5414L49.3334 32.7468C49.2205 32.2554 49.2205 31.7448 49.3334 31.2534L50.4347 26.4561C50.5899 25.7812 50.531 25.0748 50.2663 24.4349C50.0015 23.795 49.544 23.2534 48.9574 22.8854L44.7841 20.2721C44.358 20.005 43.9979 19.6448 43.7307 19.2188L41.1147 15.0481ZM39.7734 26.0534C39.9383 25.7502 39.9792 25.3947 39.8874 25.0619C39.7956 24.7291 39.5783 24.4449 39.2812 24.269C38.9841 24.0932 38.6304 24.0394 38.2944 24.1191C37.9585 24.1987 37.6666 24.4056 37.4801 24.6961L30.5067 36.4988L26.2961 32.4668C26.1711 32.3385 26.0217 32.2367 25.8566 32.1675C25.6915 32.0982 25.5141 32.0629 25.3351 32.0637C25.156 32.0645 24.979 32.1013 24.8145 32.172C24.65 32.2427 24.5014 32.3458 24.3776 32.4751C24.2538 32.6045 24.1573 32.7574 24.0939 32.9249C24.0305 33.0923 24.0015 33.2708 24.0086 33.4497C24.0157 33.6286 24.0587 33.8043 24.1351 33.9662C24.2115 34.1281 24.3198 34.2729 24.4534 34.3921L29.8774 39.5894C30.0226 39.7282 30.1972 39.8325 30.3883 39.8943C30.5794 39.9562 30.782 39.974 30.981 39.9466C31.18 39.9192 31.3701 39.8471 31.5374 39.7359C31.7046 39.6246 31.8445 39.477 31.9467 39.3041L39.7734 26.0534Z" fill="black"/>
</svg>
