<svg width="30" height="30" viewBox="0 0 30 30" fill="none" xmlns="http://www.w3.org/2000/svg">
<path d="M16.2 16.2H13.8V9H16.2M16.2 21H13.8V18.6H16.2M15 3C13.4241 3 11.8637 3.31039 10.4078 3.91345C8.95189 4.5165 7.62902 5.40042 6.51472 6.51472C4.26428 8.76516 3 11.8174 3 15C3 18.1826 4.26428 21.2348 6.51472 23.4853C7.62902 24.5996 8.95189 25.4835 10.4078 26.0866C11.8637 26.6896 13.4241 27 15 27C18.1826 27 21.2348 25.7357 23.4853 23.4853C25.7357 21.2348 27 18.1826 27 15C27 13.4241 26.6896 11.8637 26.0866 10.4078C25.4835 8.95189 24.5996 7.62902 23.4853 6.51472C22.371 5.40042 21.0481 4.5165 19.5922 3.91345C18.1363 3.31039 16.5759 3 15 3Z" fill="#FFFFFF"/>
</svg>
